<?xml version="1.0" encoding="UTF-8"?>
<!DOCTYPE svg PUBLIC "-//W3C//DTD SVG 1.1//EN" "http://www.w3.org/Graphics/SVG/1.1/DTD/svg11.dtd">
<!-- Creator: CorelDRAW X7 -->
<svg xmlns="http://www.w3.org/2000/svg" xml:space="preserve" width="172.887mm" height="45.185mm" version="1.1" style="shape-rendering:geometricPrecision; text-rendering:geometricPrecision; image-rendering:optimizeQuality; fill-rule:evenodd; clip-rule:evenodd"
viewBox="0 0 17289 4519"
 xmlns:xlink="http://www.w3.org/1999/xlink">
 <defs>
  <style type="text/css">
   <![CDATA[
    .fil0 {fill:url(#id1)}
    .fil1 {fill:url(#id2)}
    .fil2 {fill:url(#id3);fill-rule:nonzero}
   ]]>
  </style>
     <clipPath id="id0">
      <path d="M12786 16l4503 0 0 4502 -4503 0 0 -4502z"/>
     </clipPath>
  <linearGradient id="id1" gradientUnits="userSpaceOnUse" x1="14982.1" y1="0.02" x2="14982.1" y2="4414.5">
   <stop offset="0" style="stop-opacity:1; stop-color:#FEFEFE"/>
   <stop offset="1" style="stop-opacity:1; stop-color:#D9DADA"/>
  </linearGradient>
  <radialGradient id="id2" gradientUnits="userSpaceOnUse" gradientTransform="matrix(-1.0314 -2.15478 2.15478 -1.0314 23464 42656)" cx="15916" cy="4115.51" r="6443.98" fx="15916" fy="4115.51">
   <stop offset="0" style="stop-opacity:1; stop-color:#AA1550"/>
   <stop offset="1" style="stop-opacity:1; stop-color:#731751"/>
  </radialGradient>
  <linearGradient id="id3" gradientUnits="objectBoundingBox" x1="50%" y1="0%" x2="50%" y2="100%">
   <stop offset="0" style="stop-opacity:1; stop-color:#2B2A29"/>
   <stop offset="1" style="stop-opacity:1; stop-color:#FEFEFE"/>
  </linearGradient>
 </defs>
 <g id="Layer_x0020_1">
  <metadata id="CorelCorpID_0Corel-Layer"/>
  <g id="_519891480">
   <g>
    <g style="clip-path:url(#id0)">
     <image x="12786" y="16" width="4503" height="4503" xlink:href="codepi_Images\codepi_ImgID1.png"/>
    </g>
   </g>
   <circle class="fil0" cx="14982" cy="2207" r="2207"/>
   <path class="fil1" d="M14982 177c1121,0 2030,909 2030,2030 0,1121 -909,2030 -2030,2030 -1121,0 -2030,-909 -2030,-2030 0,-1121 909,-2030 2030,-2030zm-1150 1597c10,0 11,1 19,2l68 4 41 -65c73,-123 127,-205 278,-249 28,-8 57,-14 86,-18l101 -7c33,0 92,2 123,9 0,51 -5,107 -6,159 0,60 -21,234 -30,299 -23,160 -66,315 -119,462 -4,11 -8,20 -13,30 -4,9 -7,20 -12,30 -25,56 -51,112 -83,165l-31 52c-21,36 -43,66 -67,99 -11,17 -21,31 -33,47 -13,17 -23,31 -36,48 -44,59 -112,148 -101,228 13,92 39,158 124,209 111,66 246,40 335,-49 137,-139 172,-513 192,-697 7,-62 25,-206 27,-267 1,-61 20,-201 24,-273l23 -273c6,-44 7,-93 12,-135 3,-23 3,-48 6,-69 3,-24 2,-47 7,-68l503 0c-4,18 -24,344 -34,415 -3,22 -5,48 -7,68 -8,71 -10,136 -20,208l-41 489c-3,95 -13,196 -2,287 2,21 6,44 11,64 56,229 219,335 447,335 89,0 170,-31 225,-67 45,-29 80,-65 114,-106 54,-66 102,-159 125,-243 16,-58 30,-121 38,-181 2,-11 0,-22 2,-34 5,-39 -1,-28 -88,-28 0,39 -9,83 -19,113 -20,65 -58,119 -120,150 -66,33 -164,38 -233,8 -28,-12 -46,-28 -66,-48 -56,-55 -85,-169 -89,-253 -2,-31 -1,-77 -5,-109l8 -217c11,-139 27,-277 39,-416l21 -264c0,-23 3,-34 3,-54 0,-19 0,-38 0,-57 -1,-21 3,-31 3,-54l347 0c21,0 28,3 48,3 199,-1 149,24 150,-99 0,-32 3,-246 -3,-252 -7,-7 -85,-2 -102,-2l-989 -3c-117,0 -228,4 -344,5l-164 10c-169,18 -364,29 -478,169 -69,85 -110,216 -148,319 -11,30 -22,55 -33,85 -8,24 -28,63 -34,86z"/>
   <path class="fil2" d="M2243 3474c-47,40 -99,80 -155,116 -56,37 -116,69 -182,96 -66,29 -136,51 -213,68 -76,17 -159,25 -249,25 -161,0 -313,-31 -457,-93 -143,-61 -268,-145 -374,-253 -107,-107 -190,-232 -253,-376 -62,-144 -93,-299 -93,-463 0,-170 32,-327 97,-471 66,-143 153,-267 261,-372 109,-105 234,-187 376,-246 142,-59 289,-90 441,-91 129,0 262,23 401,70 139,47 268,124 389,230 14,12 28,18 45,18 12,0 23,-2 32,-7 9,-6 15,-11 18,-15l66 -105c3,-6 8,-18 13,-35 5,-18 -5,-37 -29,-59 -64,-54 -132,-103 -207,-147 -75,-43 -152,-81 -232,-111 -81,-30 -162,-53 -246,-69 -83,-16 -166,-24 -248,-24 -196,0 -382,38 -557,113 -175,75 -329,177 -461,307 -132,130 -236,282 -312,456 -76,175 -114,361 -114,558 0,200 38,388 114,563 76,175 180,328 312,458 132,130 286,232 461,308 175,76 362,114 559,114 97,0 190,-10 279,-29 88,-19 173,-44 252,-78 78,-32 153,-71 223,-114 70,-43 133,-88 191,-135 18,-15 29,-33 33,-52 4,-19 -2,-37 -17,-55l-68 -100c-10,-14 -24,-21 -42,-21 -19,0 -38,7 -54,21z"/>
   <path id="1" class="fil2" d="M2669 2593c0,197 38,383 115,558 76,175 181,328 312,459 131,131 284,235 458,312 175,76 361,115 557,115 199,0 386,-39 559,-115 174,-77 325,-181 454,-312 129,-131 231,-284 305,-459 75,-175 112,-361 112,-558 0,-199 -37,-385 -112,-558 -74,-173 -176,-325 -306,-454 -129,-129 -282,-231 -456,-305 -175,-74 -361,-111 -560,-111 -197,0 -383,37 -557,111 -175,74 -327,176 -458,305 -130,128 -234,279 -310,453 -75,173 -113,360 -113,559zm266 0c0,-163 31,-315 93,-459 61,-143 145,-268 251,-376 107,-108 231,-193 373,-255 142,-62 293,-94 454,-94 164,0 317,32 460,95 143,63 267,148 372,254 106,108 189,233 250,376 60,144 91,296 91,459 0,161 -29,313 -88,457 -59,144 -140,271 -244,381 -103,109 -227,196 -370,260 -142,64 -298,97 -466,97 -161,0 -314,-33 -456,-96 -142,-64 -268,-150 -375,-259 -106,-110 -191,-237 -252,-381 -62,-145 -93,-298 -93,-459z"/>
   <path id="2" class="fil2" d="M6254 2601c0,-163 30,-317 92,-462 61,-144 145,-271 251,-379 107,-109 231,-195 373,-259 143,-64 296,-96 456,-96 162,0 315,32 458,97 142,65 267,151 373,262 107,109 190,236 252,381 61,146 92,299 92,460 0,165 -31,318 -95,463 -62,143 -148,269 -255,376 -108,107 -234,192 -379,255 -144,62 -297,93 -459,93 -161,0 -312,-32 -453,-96 -140,-64 -263,-150 -367,-259 -105,-108 -188,-235 -248,-380 -61,-144 -91,-297 -91,-456zm2583 -2160c0,-18 -4,-33 -10,-45 -7,-12 -19,-18 -37,-18l-147 2c-22,0 -37,6 -46,18 -9,13 -13,26 -13,43l0 1380c-59,-100 -131,-191 -215,-271 -83,-81 -175,-149 -275,-206 -100,-58 -207,-101 -321,-133 -113,-31 -231,-46 -352,-46 -198,0 -383,37 -557,113 -173,77 -326,179 -455,309 -130,131 -233,282 -308,456 -76,174 -114,360 -114,558 0,197 38,384 114,558 75,175 178,327 308,457 129,130 282,233 455,308 174,75 359,113 557,113 182,0 354,-33 516,-99 163,-64 308,-159 437,-282 38,-35 75,-77 110,-126 36,-50 69,-99 100,-148l0 527c0,24 4,40 12,53 9,12 24,18 47,18l131 0c42,0 63,-23 63,-71l0 -3468z"/>
   <path id="3" class="fil2" d="M10785 1401c166,0 318,30 453,91 135,61 252,141 352,240 99,99 180,211 243,334 63,124 105,248 127,375l-2341 0c21,-142 66,-276 135,-402 70,-127 156,-238 260,-332 104,-94 222,-169 354,-224 132,-55 271,-82 417,-82zm1300 1294c83,0 126,-39 126,-117 0,-178 -35,-352 -104,-522 -69,-170 -166,-322 -291,-455 -124,-133 -273,-240 -447,-320 -173,-81 -367,-121 -577,-121 -199,0 -386,39 -561,115 -176,77 -329,181 -461,312 -131,131 -233,285 -309,461 -75,175 -113,361 -113,558 0,196 38,381 116,555 78,174 183,326 316,455 133,130 287,233 463,308 176,75 362,113 555,113 102,0 198,-9 286,-27 89,-17 173,-42 251,-75 78,-34 153,-73 224,-120 72,-46 140,-97 205,-156 15,-13 24,-30 26,-49 2,-18 -2,-36 -14,-53l-65 -86c-7,-13 -20,-19 -38,-19 -21,0 -40,8 -57,21 -42,35 -88,71 -136,109 -49,38 -105,73 -169,105 -64,32 -137,58 -221,79 -83,20 -182,30 -296,30 -153,0 -299,-28 -437,-85 -138,-57 -261,-135 -368,-235 -107,-99 -194,-215 -260,-349 -67,-134 -106,-278 -119,-432l2475 0z"/>
  </g>
 </g>
</svg>
