<?xml version="1.0" encoding="UTF-8"?>
<!DOCTYPE svg PUBLIC "-//W3C//DTD SVG 1.1//EN" "http://www.w3.org/Graphics/SVG/1.1/DTD/svg11.dtd">
<!-- Creator: CorelDRAW X7 -->
<svg xmlns="http://www.w3.org/2000/svg" xml:space="preserve" width="210mm" height="297mm" version="1.1" style="shape-rendering:geometricPrecision; text-rendering:geometricPrecision; image-rendering:optimizeQuality; fill-rule:evenodd; clip-rule:evenodd"
viewBox="0 0 21000 29700"
 xmlns:xlink="http://www.w3.org/1999/xlink">
 <defs>
  <style type="text/css">
   <![CDATA[
    .str0 {stroke:#2B2A29;stroke-width:20}
    .fil1 {fill:#FEFEFE}
    .fil0 {fill:#1F2C36}
   ]]>
  </style>
 </defs>
 <g id="Layer_x0020_1">
  <metadata id="CorelCorpID_0Corel-Layer"/>
  <g id="_374655400">
   <circle class="fil0 str0" cx="14744" cy="28375" r="521"/>
   <g>
    <path class="fil1" d="M14457 28589l573 0c13,0 25,-11 31,-22 2,-4 3,-13 4,-25l0 -136 0 -1c0,-72 0,-145 0,-218 -46,23 -304,211 -321,211 -19,-5 -136,-88 -162,-105 -27,-18 -142,-97 -160,-106l0 326 0 1 0 41c1,6 4,12 8,18 6,9 18,16 27,16z"/>
    <path class="fil1" d="M15027 28162l-567 0c5,7 272,188 284,188 11,0 125,-79 144,-92 18,-12 134,-88 139,-96z"/>
   </g>
  </g>
  <g id="_374654536">
   <path class="fil1" d="M8787 28138l-9 38 -1 24 1 33c1,9 3,18 2,27 4,3 6,24 8,31 3,9 5,19 8,28 2,7 9,23 9,29l14 34 2 6c5,4 10,19 13,25 2,3 13,23 13,27 1,1 1,1 2,2 1,1 2,3 2,3 1,2 2,4 3,6 2,3 4,6 5,9 3,5 4,4 4,9 5,3 17,26 21,32 7,10 16,22 21,33 3,1 6,6 7,10 5,4 4,4 8,9 3,5 4,5 6,10l5 4c3,4 10,11 11,15l54 55c6,5 14,10 19,16 5,1 5,3 10,6 2,2 6,5 9,7 5,3 8,5 13,8 4,2 5,3 8,5 4,2 4,2 6,5l1 -1c6,2 11,5 17,8 10,4 13,3 18,7l25 6 35 2 25 -5c0,0 2,-3 3,-3 -6,-14 -19,-30 -26,-45 -2,-4 -4,-5 -4,-10 -5,-3 -13,-18 -15,-24 -3,-1 -6,-7 -8,-11 -3,-5 -6,-8 -6,-13 -4,-3 -2,0 -4,-6 -3,-1 -14,-22 -15,-25l-8 -12c-3,-6 -5,-8 -7,-14l-3 -5c-4,-3 -2,-1 -5,-7 -4,2 -7,3 -12,4 -11,1 -11,-3 -11,-3 -11,-1 -25,-18 -30,-24 -5,-5 -9,-9 -13,-15 -3,-5 -9,-10 -10,-15 -5,-3 -4,-4 -7,-9l-14 -22c-5,-9 -12,-20 -18,-30 -4,-8 -15,-25 -18,-32 -5,-4 -28,-48 -31,-59 -5,-9 -7,-19 -8,-30 0,-15 4,-24 13,-29 0,-7 -12,-24 -16,-31 -6,-9 -13,-20 -18,-31 -4,-4 -34,-55 -34,-58 -1,-1 -2,-2 -3,-3 -1,-1 0,0 -1,-2 -3,-5 -1,0 -2,-6 -3,-2 -11,-16 -12,-20 -5,-4 -11,-18 -18,-26 -8,7 -13,12 -20,24 -5,8 -10,23 -14,29z"/>
   <path class="fil1" d="M8881 28048l-2 1c-3,4 -24,16 -28,17 -1,2 -1,1 -3,3 -2,1 -3,2 -5,3 -4,2 -5,2 -8,5 5,6 14,22 20,32 6,9 14,22 18,32 2,1 33,53 35,59 3,4 4,5 6,10 3,3 10,16 12,21 3,2 5,7 8,11 0,1 3,6 3,6 3,5 -1,5 6,3 2,-2 24,-15 28,-16 3,-4 5,-4 11,-6 1,-2 1,-2 4,-3 2,-2 4,-3 5,-4 5,-4 4,-5 8,-10 1,-21 -10,-27 -16,-43 -3,-2 -33,-53 -34,-57 -2,-2 0,0 -3,-4 -1,-1 -1,-2 -2,-3 -3,-4 -2,-2 -3,-7 -3,-2 -9,-13 -10,-17 -4,-3 -3,-2 -5,-7 -2,-3 -3,-5 -4,-7 -10,-16 -14,-28 -41,-19z"/>
   <path class="fil1" d="M9126 28500c-3,2 1,-1 -3,3 -3,1 1,-1 -2,1 -7,5 -18,8 -23,14 2,6 4,7 5,13 5,3 8,10 11,15 3,6 7,11 9,18l0 0c4,3 6,8 9,14 3,5 6,9 9,14 4,6 33,54 33,58l11 19c3,2 7,8 7,12 4,3 2,1 4,4 2,3 2,4 3,5 6,-2 9,-6 15,-7 3,-5 26,-17 31,-18 0,-1 10,-10 12,-11 4,-16 1,-19 -6,-31 -3,-5 -5,-7 -6,-13 -4,-2 -2,0 -4,-4 -1,-2 -2,-3 -3,-5 -2,-3 -3,-5 -5,-9 -2,-3 -6,-9 -8,-13 -2,-3 -3,-5 -4,-7 -3,-5 -3,-3 -3,-7 -5,-3 -4,-3 -5,-8 -3,-2 -13,-19 -14,-23l-1 -2c-1,0 -1,0 -1,-1 -17,-21 -16,-45 -45,-45 -6,3 -24,14 -26,14z"/>
  </g>
 </g>
</svg>
